<?xml version="1.0" encoding="utf-8"?>
<!-- Generator: Adobe Illustrator 17.1.0, SVG Export Plug-In . SVG Version: 6.00 Build 0)  -->
<!DOCTYPE svg PUBLIC "-//W3C//DTD SVG 1.1//EN" "http://www.w3.org/Graphics/SVG/1.1/DTD/svg11.dtd">
<svg version="1.1" id="Layer_1" xmlns="http://www.w3.org/2000/svg" xmlns:xlink="http://www.w3.org/1999/xlink" x="0px" y="0px"
	 viewBox="0 0 186 28" enable-background="new 0 0 186 28" xml:space="preserve">
<g>
	<g>
		<path fill="#D65751" d="M0,14.184v-0.061c0-5.315,3.614-8.322,7.441-8.322c2.642,0,4.313,1.306,5.467,2.825V0h3.675v22.172h-3.675
			v-2.673c-1.185,1.671-2.855,3.007-5.467,3.007C3.675,22.506,0,19.499,0,14.184z M12.969,14.184v-0.061
			c0-3.098-2.187-5.133-4.647-5.133c-2.521,0-4.616,1.944-4.616,5.133v0.061c0,3.098,2.126,5.133,4.616,5.133
			C10.782,19.317,12.969,17.251,12.969,14.184z"/>
		<path fill="#D65751" d="M19.406,14.214v-0.061c0-4.586,3.25-8.352,7.836-8.352c5.102,0,7.684,4.009,7.684,8.626
			c0,0.334-0.03,0.668-0.061,1.033H23.081c0.395,2.612,2.248,4.07,4.617,4.07c1.792,0,3.068-0.668,4.343-1.913l2.156,1.913
			c-1.519,1.822-3.614,3.007-6.56,3.007C22.99,22.536,19.406,19.165,19.406,14.214z M31.282,13.03
			c-0.243-2.369-1.64-4.222-4.07-4.222c-2.247,0-3.827,1.731-4.161,4.222H31.282z"/>
		<path fill="#D65751" d="M37.02,20.076l1.64-2.491c1.761,1.306,3.614,1.974,5.254,1.974c1.579,0,2.49-0.668,2.49-1.731v-0.061
			c0-1.245-1.701-1.671-3.584-2.248c-2.369-0.668-5.011-1.64-5.011-4.708v-0.061c0-3.037,2.521-4.89,5.71-4.89
			c2.005,0,4.192,0.699,5.892,1.822l-1.458,2.612c-1.549-0.942-3.189-1.519-4.526-1.519c-1.427,0-2.247,0.668-2.247,1.579v0.061
			c0,1.184,1.731,1.67,3.614,2.278c2.339,0.729,4.981,1.792,4.981,4.677v0.061c0,3.371-2.612,5.042-5.953,5.042
			C41.545,22.475,39.024,21.655,37.02,20.076z"/>
		<path fill="#D65751" d="M53.298,0.182h3.949v3.493h-3.949V0.182z M53.45,6.135h3.675v16.037H53.45V6.135z"/>
		<path fill="#D65751" d="M61.589,25.178l1.367-2.764c1.731,1.063,3.523,1.701,5.71,1.701c3.28,0,5.072-1.701,5.072-4.92V17.95
			c-1.336,1.731-3.007,2.946-5.649,2.946c-3.766,0-7.289-2.794-7.289-7.502v-0.061c0-4.738,3.554-7.532,7.289-7.532
			c2.703,0,4.374,1.245,5.619,2.734v-2.4h3.675v12.756c0,2.703-0.699,4.708-2.035,6.044c-1.458,1.458-3.706,2.156-6.591,2.156
			C66.114,27.092,63.654,26.424,61.589,25.178z M73.768,13.364v-0.061c0-2.612-2.157-4.404-4.708-4.404
			c-2.551,0-4.556,1.762-4.556,4.404v0.061c0,2.612,2.035,4.404,4.556,4.404C71.611,17.768,73.768,15.976,73.768,13.364z"/>
		<path fill="#D65751" d="M81.693,6.135h3.675v2.46c1.033-1.488,2.521-2.794,5.011-2.794c3.614,0,5.71,2.43,5.71,6.135v10.235
			h-3.675V13.06c0-2.49-1.245-3.918-3.432-3.918c-2.126,0-3.614,1.488-3.614,3.979v9.051h-3.675V6.135z"/>
		<path fill="#777777" d="M100.34,24.905l1.063-1.822c1.792,1.306,3.797,2.005,6.044,2.005c3.462,0,5.71-1.914,5.71-5.588v-1.853
			c-1.367,1.822-3.28,3.311-6.166,3.311c-3.766,0-7.381-2.824-7.381-7.35v-0.061c0-4.586,3.645-7.411,7.381-7.411
			c2.946,0,4.859,1.458,6.135,3.159V6.469h2.338v12.969c0,2.43-0.729,4.282-2.004,5.558c-1.397,1.397-3.493,2.096-5.983,2.096
			C104.865,27.092,102.435,26.363,100.34,24.905z M113.217,13.576v-0.061c0-3.219-2.794-5.315-5.77-5.315s-5.437,2.065-5.437,5.285
			v0.061c0,3.159,2.521,5.345,5.437,5.345C110.423,18.891,113.217,16.735,113.217,13.576z"/>
		<path fill="#777777" d="M120.383,6.469h2.339v4.1c1.154-2.612,3.432-4.495,6.409-4.374v2.521h-0.182
			c-3.432,0-6.226,2.46-6.226,7.198v6.257h-2.339V6.469z"/>
		<path fill="#777777" d="M130.74,14.396v-0.061c0-4.434,3.462-8.201,8.2-8.201c4.708,0,8.17,3.706,8.17,8.14v0.061
			c0,4.434-3.493,8.201-8.231,8.201C134.172,22.536,130.74,18.831,130.74,14.396z M144.711,14.396v-0.061
			c0-3.371-2.521-6.135-5.831-6.135c-3.402,0-5.74,2.764-5.74,6.074v0.061c0,3.371,2.49,6.105,5.801,6.105
			C142.342,20.44,144.711,17.707,144.711,14.396z"/>
		<path fill="#777777" d="M150.783,16.219V6.469h2.339v9.172c0,2.916,1.579,4.738,4.343,4.738c2.673,0,4.708-1.974,4.708-4.92v-8.99
			h2.308v15.702h-2.308v-2.733c-1.063,1.701-2.673,3.068-5.376,3.068C153,22.506,150.783,19.955,150.783,16.219z"/>
		<path fill="#777777" d="M169.43,6.469h2.339v3.159c1.276-1.883,3.128-3.493,6.014-3.493c3.766,0,7.502,2.976,7.502,8.14v0.061
			c0,5.133-3.705,8.17-7.502,8.17c-2.916,0-4.799-1.579-6.014-3.341v7.866h-2.339V6.469z M182.885,14.366v-0.061
			c0-3.706-2.551-6.074-5.527-6.074c-2.916,0-5.679,2.46-5.679,6.044v0.061c0,3.645,2.764,6.074,5.679,6.074
			C180.394,20.41,182.885,18.163,182.885,14.366z"/>
	</g>
</g>
</svg>
