<?xml version="1.0" encoding="utf-8"?>
<!-- Generator: Adobe Illustrator 17.1.0, SVG Export Plug-In . SVG Version: 6.00 Build 0)  -->
<!DOCTYPE svg PUBLIC "-//W3C//DTD SVG 1.1//EN" "http://www.w3.org/Graphics/SVG/1.1/DTD/svg11.dtd">
<svg version="1.1" id="Layer_1" xmlns="http://www.w3.org/2000/svg" xmlns:xlink="http://www.w3.org/1999/xlink" x="0px" y="0px"
	 viewBox="0 0 65 21" enable-background="new 0 0 65 21" xml:space="preserve">
<g>
	<g>
		<g>
			<g>
				<path fill="#AAAAAA" d="M63.825,0.356c-0.63,0-1.116,0.489-1.116,1.116c0,0.627,0.485,1.116,1.116,1.116
					s1.115-0.489,1.115-1.116C64.94,0.845,64.455,0.356,63.825,0.356z M63.825,2.429c-0.54,0-0.941-0.423-0.941-0.957
					c0-0.534,0.401-0.956,0.941-0.956c0.539,0,0.941,0.422,0.941,0.956C64.766,2.006,64.364,2.429,63.825,2.429z"/>
			</g>
		</g>
		<g>
			<g>
				<path fill="#AAAAAA" d="M64.336,1.184c0-0.231-0.13-0.357-0.421-0.357h-0.494v1.29h0.158V1.543h0.267l0.364,0.573h0.186
					l-0.383-0.573C64.184,1.514,64.336,1.412,64.336,1.184z M63.789,1.409h-0.21V0.962h0.291c0.156,0,0.307,0.042,0.307,0.222
					C64.177,1.402,63.984,1.409,63.789,1.409z"/>
			</g>
		</g>
		<g>
			<g>
				<path fill="#AAAAAA" d="M40.69,0H21.002h-0.635H0v21h20.367h0.635H40.69h0.677h20.324V0H41.367H40.69z M20.367,20.365H0.635
					V0.635h19.732V20.365z M21.002,20.365V0.635H40.69v19.73H21.002z M61.056,0.635v19.73H41.367V0.635H61.056z"/>
			</g>
		</g>
		<g>
			<path fill="#AAAAAA" d="M8,8.179c0-0.296,0.645-0.547,1.051-0.746c0.406-0.201,0.837-0.302,1.195-0.302
				c0.774,0,1.117,0.205,1.457,0.611C12.044,8.152,12,8.799,12,9.686V16h3V9.301c0-1.328-0.403-2.366-1.12-3.107
				c-0.717-0.745-1.719-1.116-2.959-1.116c-1.293,0-2.281,0.256-2.944,1.023L7.518,5H6v11h2V8.179z"/>
		</g>
		<g>
			<g>
				<path fill="#AAAAAA" d="M30.83,5.079c-0.891,0-1.642,0.293-2.252,0.877V5.255h-2.435v14.516h2.435v-4.329
					c0.63,0.305,1.328,0.459,2.096,0.459c1.592,0,2.847-0.461,3.768-1.384c0.919-0.921,1.378-2.238,1.378-3.944
					C35.82,6.911,34.158,5.079,30.83,5.079z M32.537,13.046c-0.49,0.534-1.294,0.802-2.414,0.802c-0.59,0-1.105-0.178-1.545-0.535
					V7.841c0.452-0.452,0.971-0.681,1.554-0.681c1.12,0,1.923,0.252,2.409,0.754c0.485,0.502,0.728,1.368,0.728,2.6
					C33.27,11.667,33.025,12.511,32.537,13.046z"/>
			</g>
		</g>
		<g>
			<path fill="#AAAAAA" d="M50,16V9.773c0-0.738,0.392-1.362,0.829-1.874c0.437-0.512,1.024-0.767,1.585-0.767
				c0.518,0,1.036,0.137,1.47,0.411l1.049-2.084c-0.439-0.253-1.238-0.38-2.064-0.38C51.744,5.079,51,5.469,50,6.252V5h-2v11H50z"/>
		</g>
	</g>
</g>
</svg>
